# xmcd CD database file
#
# Track frame offsets:
#	150
#	57218
#	89372
#	142601
#	171734
#	203800
#	236902
#
# Disc length: 3537 seconds
#
# Revision: 1
# Processed by: cddbd v1.5.2PL0 Copyright (c) Steve Scherf et al.
# Submitted via: CDex 1.82
#
DISCID=5f0dcf07
DTITLE=Louis Moholo-Moholo - Marilyn Crispell - Sibanye (We Are One)
DYEAR=2007
DGENRE=Jazz
TTITLE0=Improvise, Don't Compromise
TTITLE1=Moment of Truth
TTITLE2=Journey
TTITLE3=Soze (Never)
TTITLE4=Phendula (Reply)
TTITLE5=Reflect
TTITLE6=Sibanye (We Are One)
EXTD=YEAR: 2007
EXTT0=
EXTT1=
EXTT2=
EXTT3=
EXTT4=
EXTT5=
EXTT6=
PLAYORDER=
